<svg xmlns="http://www.w3.org/2000/svg" xmlns:xlink="http://www.w3.org/1999/xlink" width="500" zoomAndPan="magnify" viewBox="0 0 375 374.999991" height="500" preserveAspectRatio="xMidYMid meet" version="1.0"><defs><g/><clipPath id="f4febc6dc6"><path d="M 121.257812 128 L 195 128 L 195 188.238281 L 121.257812 188.238281 Z M 121.257812 128 " clip-rule="nonzero"/></clipPath><clipPath id="5984c7ce53"><path d="M 138 89.238281 L 244.257812 89.238281 L 244.257812 188.238281 L 138 188.238281 Z M 138 89.238281 " clip-rule="nonzero"/></clipPath></defs><g clip-path="url(#f4febc6dc6)"><path fill="#6d4c41" d="M 186.101562 163.765625 C 192.890625 172.015625 194.292969 178.175781 194.230469 188.238281 L 121.257812 188.238281 L 121.257812 137.792969 L 123.1875 136.992188 L 144.546875 128.199219 L 144.546875 134.902344 L 127.480469 141.925781 L 127.480469 182.027344 L 187.972656 182.027344 C 187.492188 178.066406 185.5625 172.863281 181.316406 167.699219 C 177.628906 163.210938 172.207031 158.796875 164.484375 155.265625 C 159.664062 159.683594 160.363281 163.261719 164.9375 167.515625 L 160.707031 172.054688 C 155.578125 167.292969 152.886719 161.183594 156.820312 154.789062 C 149.429688 155.941406 148.3125 161.023438 148.804688 167.6875 L 142.605469 168.117188 C 141.90625 158.636719 144.78125 150.851562 154.914062 148.824219 C 149.8125 146.546875 144.71875 148.148438 141.820312 153.015625 L 136.492188 149.832031 C 141.695312 141.113281 151.398438 139.367188 159.859375 144.40625 C 160.328125 144.691406 160.792969 144.984375 161.261719 145.304688 C 162.699219 136.28125 168.308594 131.507812 177.59375 133.5 L 176.300781 139.574219 C 172.035156 138.652344 169.242188 139.625 167.902344 143.890625 C 174.34375 140.351562 181.453125 142.070312 187.503906 145.648438 L 184.34375 151.035156 C 179.414062 148.121094 173.855469 146.644531 169.09375 150.605469 C 176.707031 154.40625 182.214844 159.042969 186.101562 163.765625 Z M 186.101562 163.765625 " fill-opacity="1" fill-rule="evenodd"/></g><g clip-path="url(#5984c7ce53)"><path fill="#d4af37" d="M 170.792969 116.996094 C 163.660156 119.921875 160.167969 125.089844 161.210938 132.898438 L 155.0625 133.695312 C 154.105469 126.515625 156.070312 119.984375 161.640625 115.273438 C 154.816406 115.289062 150.957031 118.054688 148.730469 124.644531 L 142.851562 122.679688 C 146.109375 113.011719 152.738281 108.792969 162.710938 109.101562 C 156.773438 104.527344 148.472656 103.371094 142.679688 108.804688 L 138.425781 104.28125 C 146.136719 97.039062 157.324219 97.601562 165.640625 103.542969 C 165.945312 96.519531 170.003906 90.066406 177.359375 89.242188 L 178.035156 95.414062 C 173.609375 95.90625 171.875 100.40625 171.835938 104.367188 C 177.1875 96.839844 186.457031 95.746094 194.992188 97.320312 L 193.875 103.421875 C 187.871094 102.3125 180.800781 102.546875 176.929688 107.933594 C 185.832031 105.832031 195.066406 108.535156 200.808594 115.851562 L 195.929688 119.691406 C 191.414062 113.945312 184.011719 112.199219 177.1875 114.265625 C 188.328125 123.933594 195.695312 134.289062 200.503906 144.175781 C 207.78125 159.164062 209.160156 173.109375 208.863281 182.015625 L 238.011719 182.015625 L 238.011719 124.558594 L 213.90625 106.347656 L 203.675781 110.566406 L 203.675781 103.863281 L 213.195312 99.941406 L 214.828125 99.261719 L 216.242188 100.320312 L 243.003906 120.527344 L 244.246094 121.460938 L 244.246094 188.238281 L 202.273438 188.238281 C 202.273438 188.238281 202.640625 185.335938 202.679688 182.015625 C 202.972656 173.859375 201.746094 160.910156 194.917969 146.867188 C 190.109375 137.003906 182.546875 126.613281 170.792969 116.996094 Z M 213.046875 140.84375 L 219.269531 140.84375 L 219.269531 147.0625 L 213.046875 147.0625 Z M 219.269531 137.484375 L 213.046875 137.484375 L 213.046875 131.261719 L 219.269531 131.261719 Z M 222.808594 137.484375 L 222.808594 131.261719 L 229.03125 131.261719 L 229.03125 137.484375 Z M 222.808594 140.84375 L 229.03125 140.84375 L 229.03125 147.0625 L 222.808594 147.0625 Z M 222.808594 140.84375 " fill-opacity="1" fill-rule="evenodd"/></g><g fill="#d4af37" fill-opacity="1"><g transform="translate(96.761717, 226.475404)"><g><path d="M 6.546875 -14.078125 L 6.546875 0 L 2.375 0 L 2.375 -20.40625 L 7.1875 -20.40625 L 16.046875 -7.09375 L 16.046875 -20.40625 L 20.21875 -20.40625 L 20.21875 0 L 15.921875 0 Z M 6.546875 -14.078125 "/></g></g></g><g fill="#d4af37" fill-opacity="1"><g transform="translate(119.383961, 226.475404)"><g><path d="M 18.5625 -8.234375 C 18.5625 -6.492188 18.253906 -4.984375 17.640625 -3.703125 C 17.035156 -2.429688 16.125 -1.445312 14.90625 -0.75 C 13.6875 -0.0625 12.160156 0.28125 10.328125 0.28125 C 8.441406 0.28125 6.894531 -0.0703125 5.6875 -0.78125 C 4.488281 -1.488281 3.597656 -2.472656 3.015625 -3.734375 C 2.441406 -4.992188 2.15625 -6.441406 2.15625 -8.078125 L 2.15625 -20.40625 L 6.40625 -20.40625 L 6.390625 -8.1875 C 6.390625 -6.675781 6.769531 -5.5625 7.53125 -4.84375 C 8.289062 -4.132812 9.226562 -3.78125 10.34375 -3.78125 C 11.644531 -3.78125 12.644531 -4.175781 13.34375 -4.96875 C 14.039062 -5.757812 14.390625 -6.796875 14.390625 -8.078125 L 14.390625 -20.40625 L 18.5625 -20.40625 Z M 18.5625 -8.234375 "/></g></g></g><g fill="#d4af37" fill-opacity="1"><g transform="translate(140.103637, 226.475404)"><g><path d="M 5.53125 -14.828125 C 5.53125 -14.179688 5.800781 -13.679688 6.34375 -13.328125 C 6.894531 -12.972656 7.71875 -12.640625 8.8125 -12.328125 C 10.320312 -11.890625 11.609375 -11.398438 12.671875 -10.859375 C 13.742188 -10.328125 14.554688 -9.671875 15.109375 -8.890625 C 15.671875 -8.109375 15.953125 -7.144531 15.953125 -6 C 15.953125 -4.800781 15.664062 -3.726562 15.09375 -2.78125 C 14.519531 -1.832031 13.675781 -1.078125 12.5625 -0.515625 C 11.445312 0.0351562 10.082031 0.3125 8.46875 0.3125 C 6.539062 0.3125 4.878906 -0.117188 3.484375 -0.984375 C 2.097656 -1.859375 1.101562 -3.023438 0.5 -4.484375 L 4.140625 -6.359375 C 4.546875 -5.472656 5.132812 -4.773438 5.90625 -4.265625 C 6.675781 -3.765625 7.570312 -3.515625 8.59375 -3.515625 C 9.519531 -3.515625 10.269531 -3.71875 10.84375 -4.125 C 11.414062 -4.539062 11.703125 -5.0625 11.703125 -5.6875 C 11.703125 -6.082031 11.585938 -6.421875 11.359375 -6.703125 C 11.140625 -6.992188 10.742188 -7.257812 10.171875 -7.5 C 9.609375 -7.75 8.832031 -8.019531 7.84375 -8.3125 C 6.75 -8.644531 5.785156 -9.003906 4.953125 -9.390625 C 4.117188 -9.785156 3.421875 -10.253906 2.859375 -10.796875 C 2.390625 -11.242188 2.007812 -11.785156 1.71875 -12.421875 C 1.4375 -13.066406 1.296875 -13.78125 1.296875 -14.5625 C 1.296875 -15.78125 1.617188 -16.847656 2.265625 -17.765625 C 2.921875 -18.691406 3.785156 -19.414062 4.859375 -19.9375 C 5.941406 -20.457031 7.128906 -20.71875 8.421875 -20.71875 C 10.117188 -20.71875 11.585938 -20.332031 12.828125 -19.5625 C 14.078125 -18.789062 14.992188 -17.707031 15.578125 -16.3125 L 12.09375 -14.40625 C 11.757812 -15.226562 11.25 -15.851562 10.5625 -16.28125 C 9.875 -16.707031 9.097656 -16.921875 8.234375 -16.921875 C 7.378906 -16.921875 6.710938 -16.722656 6.234375 -16.328125 C 5.765625 -15.929688 5.53125 -15.429688 5.53125 -14.828125 Z M 5.53125 -14.828125 "/></g></g></g><g fill="#d4af37" fill-opacity="1"><g transform="translate(157.096384, 226.475404)"><g><path d="M 4.21875 0 L -0.03125 0 L 7.765625 -20.40625 L 12.84375 -20.40625 L 20.671875 0 L 16.3125 0 L 14.78125 -4.125 L 5.734375 -4.125 Z M 10.265625 -16.3125 L 7.1875 -8.03125 L 13.34375 -8.03125 Z M 10.265625 -16.3125 "/></g></g></g><g fill="#d4af37" fill-opacity="1"><g transform="translate(177.737874, 226.475404)"><g><path d="M 6.546875 -14.078125 L 6.546875 0 L 2.375 0 L 2.375 -20.40625 L 7.1875 -20.40625 L 16.046875 -7.09375 L 16.046875 -20.40625 L 20.21875 -20.40625 L 20.21875 0 L 15.921875 0 Z M 6.546875 -14.078125 "/></g></g></g><g fill="#d4af37" fill-opacity="1"><g transform="translate(200.360118, 226.475404)"><g><path d="M 6.671875 0 L 6.671875 -16.3125 L 0.546875 -16.3125 L 0.546875 -20.40625 L 17 -20.40625 L 17 -16.3125 L 10.875 -16.3125 L 10.875 0 Z M 6.671875 0 "/></g></g></g><g fill="#d4af37" fill-opacity="1"><g transform="translate(217.900167, 226.475404)"><g><path d="M 4.21875 0 L -0.03125 0 L 7.765625 -20.40625 L 12.84375 -20.40625 L 20.671875 0 L 16.3125 0 L 14.78125 -4.125 L 5.734375 -4.125 Z M 10.265625 -16.3125 L 7.1875 -8.03125 L 13.34375 -8.03125 Z M 10.265625 -16.3125 "/></g></g></g><g fill="#d4af37" fill-opacity="1"><g transform="translate(238.541657, 226.475404)"><g><path d="M 18.0625 0 L 13.375 0 L 9.140625 -7.328125 L 6.59375 -7.328125 L 6.59375 0 L 2.375 0 L 2.375 -20.40625 L 10.421875 -20.40625 C 11.742188 -20.40625 12.953125 -20.164062 14.046875 -19.6875 C 15.140625 -19.207031 16.007812 -18.488281 16.65625 -17.53125 C 17.3125 -16.582031 17.640625 -15.382812 17.640625 -13.9375 C 17.640625 -10.96875 16.242188 -8.976562 13.453125 -7.96875 Z M 10.109375 -11.234375 C 10.628906 -11.234375 11.140625 -11.316406 11.640625 -11.484375 C 12.148438 -11.660156 12.566406 -11.941406 12.890625 -12.328125 C 13.210938 -12.710938 13.375 -13.222656 13.375 -13.859375 C 13.375 -14.523438 13.207031 -15.039062 12.875 -15.40625 C 12.539062 -15.769531 12.125 -16.03125 11.625 -16.1875 C 11.132812 -16.34375 10.625 -16.421875 10.09375 -16.421875 L 6.59375 -16.421875 L 6.59375 -11.234375 Z M 10.109375 -11.234375 "/></g></g></g><g fill="#d4af37" fill-opacity="1"><g transform="translate(257.593333, 226.475404)"><g><path d="M 4.21875 0 L -0.03125 0 L 7.765625 -20.40625 L 12.84375 -20.40625 L 20.671875 0 L 16.3125 0 L 14.78125 -4.125 L 5.734375 -4.125 Z M 10.265625 -16.3125 L 7.1875 -8.03125 L 13.34375 -8.03125 Z M 10.265625 -16.3125 "/></g></g></g><g fill="#6d4c41" fill-opacity="1"><g transform="translate(162.206368, 244.289295)"><g><path d="M 7.359375 -5.921875 L 7.359375 -9.484375 L 9.21875 -9.484375 L 9.21875 0 L 7.359375 0 L 7.359375 -4.3125 L 3.109375 -4.3125 L 3.109375 0 L 1.234375 0 L 1.234375 -9.484375 L 3.109375 -9.484375 L 3.109375 -5.921875 Z M 7.359375 -5.921875 "/></g></g></g><g fill="#6d4c41" fill-opacity="1"><g transform="translate(174.191685, 244.289295)"><g><path d="M 5.171875 0.140625 C 4.296875 0.140625 3.523438 -0.0351562 2.859375 -0.390625 C 2.203125 -0.742188 1.6875 -1.285156 1.3125 -2.015625 C 0.9375 -2.742188 0.75 -3.648438 0.75 -4.734375 C 0.75 -5.828125 0.9375 -6.734375 1.3125 -7.453125 C 1.6875 -8.179688 2.203125 -8.722656 2.859375 -9.078125 C 3.523438 -9.441406 4.296875 -9.625 5.171875 -9.625 C 6.035156 -9.625 6.796875 -9.445312 7.453125 -9.09375 C 8.117188 -8.738281 8.640625 -8.195312 9.015625 -7.46875 C 9.390625 -6.738281 9.578125 -5.828125 9.578125 -4.734375 C 9.578125 -3.648438 9.390625 -2.742188 9.015625 -2.015625 C 8.640625 -1.285156 8.117188 -0.742188 7.453125 -0.390625 C 6.796875 -0.0351562 6.035156 0.140625 5.171875 0.140625 Z M 5.171875 -1.484375 C 5.972656 -1.484375 6.582031 -1.742188 7 -2.265625 C 7.425781 -2.785156 7.640625 -3.609375 7.640625 -4.734375 C 7.640625 -5.867188 7.425781 -6.695312 7 -7.21875 C 6.582031 -7.738281 5.972656 -8 5.171875 -8 C 4.359375 -8 3.738281 -7.738281 3.3125 -7.21875 C 2.882812 -6.695312 2.671875 -5.867188 2.671875 -4.734375 C 2.671875 -3.609375 2.882812 -2.785156 3.3125 -2.265625 C 3.738281 -1.742188 4.359375 -1.484375 5.171875 -1.484375 Z M 5.171875 -1.484375 "/></g></g></g><g fill="#6d4c41" fill-opacity="1"><g transform="translate(186.047342, 244.289295)"><g><path d="M 7.59375 -9.484375 L 7.59375 -7.90625 L 4.859375 -7.90625 L 4.859375 0 L 3 0 L 3 -7.90625 L 0.265625 -7.90625 L 0.265625 -9.484375 Z M 7.59375 -9.484375 "/></g></g></g><g fill="#6d4c41" fill-opacity="1"><g transform="translate(195.432941, 244.289295)"><g><path d="M 3.109375 -4.15625 L 3.109375 -1.5625 L 7.640625 -1.5625 L 7.640625 0 L 1.234375 0 L 1.234375 -9.484375 L 7.53125 -9.484375 L 7.53125 -7.90625 L 3.109375 -7.90625 L 3.109375 -5.6875 L 6.96875 -5.6875 L 6.96875 -4.15625 Z M 3.109375 -4.15625 "/></g></g></g><g fill="#6d4c41" fill-opacity="1"><g transform="translate(205.110282, 244.289295)"><g><path d="M 3.109375 -9.484375 L 3.109375 -1.5625 L 7.359375 -1.5625 L 7.359375 0 L 1.234375 0 L 1.234375 -9.484375 Z M 3.109375 -9.484375 "/></g></g></g><path stroke-linecap="butt" transform="matrix(0.75, 0, 0, 0.75, 85.767743, 238.289296)" fill="none" stroke-linejoin="miter" d="M 0.00238451 2.999689 L 59.976347 2.999689 " stroke="#d4af37" stroke-width="6" stroke-opacity="1" stroke-miterlimit="4"/><path stroke-linecap="butt" transform="matrix(0.75, 0, 0, 0.75, 244.24824, 237.539296)" fill="none" stroke-linejoin="miter" d="M 0.00234605 2.999689 L 59.976308 2.999689 " stroke="#d4af37" stroke-width="6" stroke-opacity="1" stroke-miterlimit="4"/></svg>