<svg xmlns="http://www.w3.org/2000/svg" xmlns:xlink="http://www.w3.org/1999/xlink" width="500" zoomAndPan="magnify" viewBox="0 0 375 374.999991" height="500" preserveAspectRatio="xMidYMid meet" version="1.0"><defs><g/><clipPath id="1c6bb2c965"><path d="M 70.90625 92 L 200 92 L 200 198.113281 L 70.90625 198.113281 Z M 70.90625 92 " clip-rule="nonzero"/></clipPath><clipPath id="d50f5fd9a1"><path d="M 101 24.113281 L 287.65625 24.113281 L 287.65625 198.113281 L 101 198.113281 Z M 101 24.113281 " clip-rule="nonzero"/></clipPath></defs><g clip-path="url(#1c6bb2c965)"><path fill="#ffffff" d="M 185.039062 155.289062 C 196.988281 169.8125 199.453125 180.65625 199.347656 198.363281 L 70.90625 198.363281 L 70.90625 109.574219 L 74.304688 108.167969 L 111.902344 92.691406 L 111.902344 104.488281 L 81.859375 116.847656 L 81.859375 187.433594 L 188.328125 187.433594 C 187.484375 180.460938 184.085938 171.308594 176.617188 162.214844 C 170.125 154.316406 160.582031 146.546875 146.988281 140.332031 C 138.503906 148.105469 139.734375 154.402344 147.789062 161.890625 L 140.34375 169.878906 C 131.316406 161.5 126.578125 150.746094 133.503906 139.488281 C 120.496094 141.523438 118.523438 150.460938 119.390625 162.195312 L 108.480469 162.953125 C 107.246094 146.265625 112.3125 132.5625 130.148438 128.992188 C 121.164062 124.988281 112.203125 127.800781 107.097656 136.371094 L 97.722656 130.765625 C 106.878906 115.421875 123.957031 112.347656 138.847656 121.222656 C 139.671875 121.71875 140.492188 122.238281 141.316406 122.800781 C 143.847656 106.914062 153.71875 98.515625 170.0625 102.023438 L 167.789062 112.714844 C 160.277344 111.089844 155.363281 112.800781 153.003906 120.3125 C 164.347656 114.078125 176.855469 117.109375 187.507812 123.40625 L 181.945312 132.886719 C 173.265625 127.757812 163.480469 125.160156 155.105469 132.128906 C 168.503906 138.816406 178.199219 146.976562 185.039062 155.289062 Z M 185.039062 155.289062 " fill-opacity="1" fill-rule="evenodd"/></g><g clip-path="url(#d50f5fd9a1)"><path fill="#d4af37" d="M 158.089844 72.976562 C 145.535156 78.125 139.390625 87.21875 141.230469 100.960938 L 130.40625 102.367188 C 128.71875 89.726562 132.183594 78.234375 141.988281 69.945312 C 129.972656 69.964844 123.179688 74.835938 119.261719 86.4375 L 108.914062 82.976562 C 114.648438 65.960938 126.316406 58.539062 143.871094 59.078125 C 133.417969 51.027344 118.804688 48.992188 108.609375 58.558594 L 101.121094 50.59375 C 114.695312 37.84375 134.390625 38.839844 149.023438 49.296875 C 149.5625 36.9375 156.707031 25.574219 169.648438 24.121094 L 170.839844 34.988281 C 163.046875 35.855469 159.996094 43.777344 159.929688 50.746094 C 169.347656 37.5 185.667969 35.574219 200.6875 38.34375 L 198.71875 49.078125 C 188.15625 47.132812 175.710938 47.542969 168.890625 57.023438 C 184.5625 53.320312 200.816406 58.082031 210.925781 70.960938 L 202.332031 77.714844 C 194.390625 67.605469 181.359375 64.535156 169.347656 68.167969 C 188.957031 85.183594 201.921875 103.40625 210.382812 120.808594 C 223.199219 147.195312 225.621094 171.738281 225.101562 187.410156 L 276.402344 187.410156 L 276.402344 86.285156 L 233.976562 54.230469 L 215.96875 61.65625 L 215.96875 49.859375 L 232.722656 42.953125 L 235.601562 41.761719 L 238.089844 43.625 L 285.1875 79.1875 L 287.375 80.832031 L 287.375 198.363281 L 213.5 198.363281 C 213.5 198.363281 214.152344 193.253906 214.214844 187.410156 C 214.734375 173.058594 212.570312 150.269531 200.558594 125.550781 C 192.09375 108.191406 178.785156 89.902344 158.089844 72.976562 Z M 232.460938 114.945312 L 243.414062 114.945312 L 243.414062 125.894531 L 232.460938 125.894531 Z M 243.414062 109.035156 L 232.460938 109.035156 L 232.460938 98.082031 L 243.414062 98.082031 Z M 249.648438 109.035156 L 249.648438 98.082031 L 260.601562 98.082031 L 260.601562 109.035156 Z M 249.648438 114.945312 L 260.601562 114.945312 L 260.601562 125.894531 L 249.648438 125.894531 Z M 249.648438 114.945312 " fill-opacity="1" fill-rule="evenodd"/></g><g fill="#d4af37" fill-opacity="1"><g transform="translate(27.79246, 265.662313)"><g><path d="M 11.515625 -24.78125 L 11.515625 0 L 4.171875 0 L 4.171875 -35.9375 L 12.671875 -35.9375 L 28.265625 -12.484375 L 28.265625 -35.9375 L 35.609375 -35.9375 L 35.609375 0 L 28.046875 0 Z M 11.515625 -24.78125 "/></g></g></g><g fill="#d4af37" fill-opacity="1"><g transform="translate(67.609649, 265.662313)"><g><path d="M 32.671875 -14.5 C 32.671875 -11.4375 32.132812 -8.78125 31.0625 -6.53125 C 30 -4.289062 28.394531 -2.554688 26.25 -1.328125 C 24.101562 -0.109375 21.410156 0.5 18.171875 0.5 C 14.867188 0.5 12.15625 -0.125 10.03125 -1.375 C 7.90625 -2.632812 6.335938 -4.367188 5.328125 -6.578125 C 4.316406 -8.796875 3.8125 -11.34375 3.8125 -14.21875 L 3.8125 -35.9375 L 11.296875 -35.9375 L 11.25 -14.40625 C 11.25 -11.75 11.921875 -9.789062 13.265625 -8.53125 C 14.609375 -7.28125 16.257812 -6.65625 18.21875 -6.65625 C 20.507812 -6.65625 22.265625 -7.347656 23.484375 -8.734375 C 24.710938 -10.128906 25.328125 -11.957031 25.328125 -14.21875 L 25.328125 -35.9375 L 32.671875 -35.9375 Z M 32.671875 -14.5 "/></g></g></g><g fill="#d4af37" fill-opacity="1"><g transform="translate(104.078147, 265.662313)"><g><path d="M 9.734375 -26.109375 C 9.734375 -24.972656 10.210938 -24.09375 11.171875 -23.46875 C 12.140625 -22.84375 13.585938 -22.253906 15.515625 -21.703125 C 18.171875 -20.941406 20.4375 -20.085938 22.3125 -19.140625 C 24.195312 -18.191406 25.628906 -17.023438 26.609375 -15.640625 C 27.585938 -14.265625 28.078125 -12.570312 28.078125 -10.5625 C 28.078125 -8.445312 27.570312 -6.554688 26.5625 -4.890625 C 25.5625 -3.222656 24.082031 -1.898438 22.125 -0.921875 C 20.164062 0.0546875 17.765625 0.546875 14.921875 0.546875 C 11.523438 0.546875 8.601562 -0.210938 6.15625 -1.734375 C 3.707031 -3.265625 1.945312 -5.316406 0.875 -7.890625 L 7.296875 -11.203125 C 8.003906 -9.640625 9.035156 -8.410156 10.390625 -7.515625 C 11.753906 -6.628906 13.335938 -6.1875 15.140625 -6.1875 C 16.765625 -6.1875 18.082031 -6.546875 19.09375 -7.265625 C 20.101562 -7.992188 20.609375 -8.90625 20.609375 -10 C 20.609375 -10.707031 20.40625 -11.3125 20 -11.8125 C 19.601562 -12.320312 18.90625 -12.789062 17.90625 -13.21875 C 16.914062 -13.644531 15.550781 -14.117188 13.8125 -14.640625 C 11.882812 -15.222656 10.1875 -15.859375 8.71875 -16.546875 C 7.25 -17.234375 6.023438 -18.050781 5.046875 -19 C 4.222656 -19.789062 3.554688 -20.753906 3.046875 -21.890625 C 2.546875 -23.023438 2.296875 -24.28125 2.296875 -25.65625 C 2.296875 -27.789062 2.867188 -29.671875 4.015625 -31.296875 C 5.160156 -32.921875 6.679688 -34.191406 8.578125 -35.109375 C 10.472656 -36.023438 12.554688 -36.484375 14.828125 -36.484375 C 17.816406 -36.484375 20.40625 -35.800781 22.59375 -34.4375 C 24.78125 -33.082031 26.394531 -31.179688 27.4375 -28.734375 L 21.296875 -25.375 C 20.710938 -26.8125 19.816406 -27.90625 18.609375 -28.65625 C 17.398438 -29.40625 16.03125 -29.78125 14.5 -29.78125 C 13 -29.78125 11.828125 -29.4375 10.984375 -28.75 C 10.148438 -28.0625 9.734375 -27.179688 9.734375 -26.109375 Z M 9.734375 -26.109375 "/></g></g></g><g fill="#d4af37" fill-opacity="1"><g transform="translate(133.986914, 265.662313)"><g><path d="M 7.4375 0 L -0.046875 0 L 13.671875 -35.9375 L 22.625 -35.9375 L 36.390625 0 L 28.734375 0 L 26.015625 -7.25 L 10.09375 -7.25 Z M 18.078125 -28.734375 L 12.671875 -14.140625 L 23.5 -14.140625 Z M 18.078125 -28.734375 "/></g></g></g><g fill="#d4af37" fill-opacity="1"><g transform="translate(170.317798, 265.662313)"><g><path d="M 11.515625 -24.78125 L 11.515625 0 L 4.171875 0 L 4.171875 -35.9375 L 12.671875 -35.9375 L 28.265625 -12.484375 L 28.265625 -35.9375 L 35.609375 -35.9375 L 35.609375 0 L 28.046875 0 Z M 11.515625 -24.78125 "/></g></g></g><g fill="#d4af37" fill-opacity="1"><g transform="translate(210.134987, 265.662313)"><g><path d="M 11.75 0 L 11.75 -28.734375 L 0.96875 -28.734375 L 0.96875 -35.9375 L 29.921875 -35.9375 L 29.921875 -28.734375 L 19.140625 -28.734375 L 19.140625 0 Z M 11.75 0 "/></g></g></g><g fill="#d4af37" fill-opacity="1"><g transform="translate(241.007056, 265.662313)"><g><path d="M 7.4375 0 L -0.046875 0 L 13.671875 -35.9375 L 22.625 -35.9375 L 36.390625 0 L 28.734375 0 L 26.015625 -7.25 L 10.09375 -7.25 Z M 18.078125 -28.734375 L 12.671875 -14.140625 L 23.5 -14.140625 Z M 18.078125 -28.734375 "/></g></g></g><g fill="#d4af37" fill-opacity="1"><g transform="translate(277.337939, 265.662313)"><g><path d="M 31.796875 0 L 23.546875 0 L 16.109375 -12.890625 L 11.609375 -12.890625 L 11.609375 0 L 4.171875 0 L 4.171875 -35.9375 L 18.359375 -35.9375 C 20.679688 -35.9375 22.804688 -35.515625 24.734375 -34.671875 C 26.660156 -33.828125 28.195312 -32.5625 29.34375 -30.875 C 30.488281 -29.195312 31.0625 -27.085938 31.0625 -24.546875 C 31.0625 -19.316406 28.597656 -15.816406 23.671875 -14.046875 Z M 17.8125 -19.78125 C 18.726562 -19.78125 19.628906 -19.929688 20.515625 -20.234375 C 21.398438 -20.546875 22.125 -21.035156 22.6875 -21.703125 C 23.257812 -22.378906 23.546875 -23.28125 23.546875 -24.40625 C 23.546875 -25.570312 23.253906 -26.472656 22.671875 -27.109375 C 22.085938 -27.753906 21.359375 -28.210938 20.484375 -28.484375 C 19.617188 -28.765625 18.710938 -28.90625 17.765625 -28.90625 L 11.609375 -28.90625 L 11.609375 -19.78125 Z M 17.8125 -19.78125 "/></g></g></g><g fill="#d4af37" fill-opacity="1"><g transform="translate(310.870607, 265.662313)"><g><path d="M 7.4375 0 L -0.046875 0 L 13.671875 -35.9375 L 22.625 -35.9375 L 36.390625 0 L 28.734375 0 L 26.015625 -7.25 L 10.09375 -7.25 Z M 18.078125 -28.734375 L 12.671875 -14.140625 L 23.5 -14.140625 Z M 18.078125 -28.734375 "/></g></g></g><g fill="#ffffff" fill-opacity="1"><g transform="translate(142.980948, 297.016373)"><g><path d="M 12.9375 -10.40625 L 12.9375 -16.6875 L 16.234375 -16.6875 L 16.234375 0 L 12.9375 0 L 12.9375 -7.59375 L 5.46875 -7.59375 L 5.46875 0 L 2.171875 0 L 2.171875 -16.6875 L 5.46875 -16.6875 L 5.46875 -10.40625 Z M 12.9375 -10.40625 "/></g></g></g><g fill="#ffffff" fill-opacity="1"><g transform="translate(164.076188, 297.016373)"><g><path d="M 9.09375 0.234375 C 7.5625 0.234375 6.210938 -0.0703125 5.046875 -0.6875 C 3.878906 -1.3125 2.960938 -2.265625 2.296875 -3.546875 C 1.640625 -4.835938 1.3125 -6.4375 1.3125 -8.34375 C 1.3125 -10.25 1.640625 -11.84375 2.296875 -13.125 C 2.960938 -14.40625 3.878906 -15.359375 5.046875 -15.984375 C 6.210938 -16.609375 7.5625 -16.921875 9.09375 -16.921875 C 10.625 -16.921875 11.972656 -16.609375 13.140625 -15.984375 C 14.304688 -15.367188 15.21875 -14.414062 15.875 -13.125 C 16.53125 -11.84375 16.859375 -10.25 16.859375 -8.34375 C 16.859375 -6.4375 16.53125 -4.835938 15.875 -3.546875 C 15.21875 -2.265625 14.304688 -1.3125 13.140625 -0.6875 C 11.972656 -0.0703125 10.625 0.234375 9.09375 0.234375 Z M 9.09375 -2.625 C 10.507812 -2.625 11.585938 -3.078125 12.328125 -3.984375 C 13.078125 -4.898438 13.453125 -6.351562 13.453125 -8.34375 C 13.453125 -10.332031 13.078125 -11.785156 12.328125 -12.703125 C 11.585938 -13.617188 10.507812 -14.078125 9.09375 -14.078125 C 7.675781 -14.078125 6.59375 -13.617188 5.84375 -12.703125 C 5.09375 -11.785156 4.71875 -10.332031 4.71875 -8.34375 C 4.71875 -6.351562 5.09375 -4.898438 5.84375 -3.984375 C 6.59375 -3.078125 7.675781 -2.625 9.09375 -2.625 Z M 9.09375 -2.625 "/></g></g></g><g fill="#ffffff" fill-opacity="1"><g transform="translate(184.943213, 297.016373)"><g><path d="M 13.375 -16.6875 L 13.375 -13.90625 L 8.5625 -13.90625 L 8.5625 0 L 5.265625 0 L 5.265625 -13.90625 L 0.453125 -13.90625 L 0.453125 -16.6875 Z M 13.375 -16.6875 "/></g></g></g><g fill="#ffffff" fill-opacity="1"><g transform="translate(201.462714, 297.016373)"><g><path d="M 5.46875 -7.328125 L 5.46875 -2.765625 L 13.4375 -2.765625 L 13.4375 0 L 2.171875 0 L 2.171875 -16.6875 L 13.25 -16.6875 L 13.25 -13.921875 L 5.46875 -13.921875 L 5.46875 -10.015625 L 12.265625 -10.015625 L 12.265625 -7.328125 Z M 5.46875 -7.328125 "/></g></g></g><g fill="#ffffff" fill-opacity="1"><g transform="translate(218.495707, 297.016373)"><g><path d="M 5.46875 -16.6875 L 5.46875 -2.765625 L 12.96875 -2.765625 L 12.96875 0 L 2.171875 0 L 2.171875 -16.6875 Z M 5.46875 -16.6875 "/></g></g></g><path stroke-linecap="butt" transform="matrix(0.75, 0, 0, 0.75, 8.442073, 286.666035)" fill="none" stroke-linejoin="miter" d="M -0.000889408 5.002579 L 105.566826 5.002579 " stroke="#d4af37" stroke-width="10" stroke-opacity="1" stroke-miterlimit="4"/><path stroke-linecap="butt" transform="matrix(0.75, 0, 0, 0.75, 287.382055, 285.345948)" fill="none" stroke-linejoin="miter" d="M 0.0010097 5.002277 L 105.568725 5.002277 " stroke="#d4af37" stroke-width="10" stroke-opacity="1" stroke-miterlimit="4"/></svg>